<svg xmlns="http://www.w3.org/2000/svg" viewBox="0 0 24 24" fill="#4CAF50" width="48" height="48">
  <path d="M20 2H4C2.9 2 2 2.9 2 4v14l4-4h14c1.1 0 2-.9 2-2V4c0-1.1-.9-2-2-2z"/>
</svg>
<svg xmlns="http://www.w3.org/2000/svg" viewBox="0 0 24 24" fill="#4CAF50" width="48" height="48">
  <path d="M12 17a2 2 0 0 0 2-2v-2H10v2a2 2 0 0 0 2 2zm6-6h-1V7a5 5 0 0 0-10 0v4H6c-1.1 0-2 .9-2 2v8c0 
           1.1.9 2 2 2h12c1.1 0 2-.9 2-2v-8c0-1.1-.9-2-2-2zM8 7a4 4 0 0 1 8 0v4H8V7z"/>
</svg>
<svg xmlns="http://www.w3.org/2000/svg" viewBox="0 0 24 24" fill="#E91E63" width="48" height="48">
  <path d="M12 21.35l-1.45-1.32C5.4 15.36 2 12.28 2 
           8.5 2 5.42 4.42 3 7.5 3c1.74 0 3.41.81 
           4.5 2.09C13.09 3.81 14.76 3 16.5 
           3 19.58 3 22 5.42 22 8.5c0 3.78-3.4 
           6.86-8.55 11.54L12 21.35z"/>
</svg>

